<svg width="560" height="181" viewBox="0 0 560 181" fill="none" xmlns="http://www.w3.org/2000/svg">
<path d="M95.2895 85.76L83.8975 40.704L72.5055 85.76H95.2895ZM121.786 119.296V128H96.8255V119.296H103.738L97.3375 93.824H70.4575L64.0575 119.296H71.0975V128H46.1375V119.296H54.2015L76.4735 32H91.5775L113.465 119.296H121.786ZM170.378 64.512C172.255 63.3173 174.431 62.72 176.906 62.72C179.466 62.72 181.599 63.6587 183.306 65.536C185.098 67.4133 185.994 70.144 185.994 73.728V116.736C185.994 120.235 185.439 122.709 184.33 124.16C182.282 126.72 179.167 128 174.986 128H130.058V119.296H138.122V40.704H130.058V32H148.618V78.208L170.378 64.512ZM175.754 71.424L148.618 88.448V119.296H175.754V71.424ZM250.422 119.296V128H205.878C201.526 128 198.582 127.147 197.046 125.44C195.68 123.904 194.998 121.003 194.998 116.736V112C194.998 108.928 195.382 106.837 196.15 105.728C197.259 104.107 199.776 102.101 203.702 99.712L231.862 82.176V72.704H206.774V80.128H198.582V64H230.582C234.934 64 237.963 64.9387 239.67 66.816C241.462 68.6933 242.358 71.424 242.358 75.008V119.296H250.422ZM231.862 92.416L205.238 109.056V119.296H231.862V92.416ZM305.958 64V145.024C305.958 148.608 305.062 151.339 303.27 153.216C301.563 155.093 298.534 156.032 294.182 156.032H264.614V138.624H273.318V147.2H295.462V113.536L272.934 127.488C270.971 128.683 269.008 129.28 267.046 129.28C265.083 129.28 263.376 128.64 261.926 127.36C260.475 125.995 259.75 123.861 259.75 120.96V72.704H251.558V64H270.118V119.168L295.59 103.168V72.704H289.318V64H305.958ZM329.337 128C324.985 128 321.913 127.019 320.121 125.056C318.329 123.008 317.433 120.192 317.433 116.608V75.392C317.433 71.9787 318.201 69.248 319.737 67.2C321.358 65.0667 324.558 64 329.337 64H353.017C357.71 64 360.867 65.0667 362.489 67.2C364.11 69.248 364.921 71.9787 364.921 75.392V116.608C364.921 120.192 364.025 123.008 362.233 125.056C360.441 127.019 357.369 128 353.017 128H329.337ZM327.801 119.296H354.553V72.704H327.801V119.296ZM451.343 62.72C457.999 62.72 461.327 66.0053 461.327 72.576V119.296H469.519V128H444.815V119.296H450.959V71.68L427.535 86.272V119.296H433.807V128H410.895V119.296H417.039L417.167 118.784V71.552L393.615 86.272V119.296H399.887V128H375.183V119.296H383.247V72.576H375.183V64H393.615V76.16L412.943 64C414.308 63.1467 415.844 62.72 417.551 62.72C424.207 62.72 427.535 66.0053 427.535 72.576V76.032L446.735 64C448.1 63.1467 449.636 62.72 451.343 62.72ZM499.648 119.296H507.968V128H481.088V119.296H489.152V72.704H481.088V64H499.648V119.296ZM494.4 40.448C496.192 40.448 497.685 41.1307 498.88 42.496C500.16 43.776 500.8 45.3547 500.8 47.232C500.8 49.024 500.16 50.56 498.88 51.84C497.685 53.0347 496.149 53.632 494.272 53.632C492.48 53.632 490.944 53.0347 489.664 51.84C488.469 50.56 487.872 49.024 487.872 47.232C487.872 45.3547 488.512 43.776 489.792 42.496C491.072 41.1307 492.608 40.448 494.4 40.448Z" fill="white"/>
<line x1="484" y1="3" x2="556" y2="3" stroke="white" stroke-width="4"/>
<line x1="558" x2="558" y2="72" stroke="white" stroke-width="4"/>
<line x1="2" y1="109" x2="2" y2="181" stroke="white" stroke-width="4"/>
<line y1="179" x2="72" y2="179" stroke="white" stroke-width="4"/>
</svg>
